<svg width="54" height="54" viewBox="0 0 54 54" fill="none" xmlns="http://www.w3.org/2000/svg">
<g id="mingcute:movie-line">
<g id="Group">
<path id="Vector" d="M27 4.5C39.4268 4.5 49.5 14.5733 49.5 27C49.5032 30.3782 48.7441 33.7135 47.2793 36.7576C45.8146 39.8017 43.6818 42.4761 41.04 44.5815L40.5023 45H45C45.5735 45.0006 46.1251 45.2202 46.5421 45.6139C46.9591 46.0076 47.21 46.5456 47.2436 47.1181C47.2772 47.6906 47.091 48.2544 46.7229 48.6941C46.3548 49.1339 45.8327 49.4165 45.2633 49.4842L45 49.5H27C14.5733 49.5 4.5 39.4268 4.5 27C4.5 14.5733 14.5733 4.5 27 4.5ZM27 9C22.2261 9 17.6477 10.8964 14.2721 14.2721C10.8964 17.6477 9 22.2261 9 27C9 31.7739 10.8964 36.3523 14.2721 39.7279C17.6477 43.1036 22.2261 45 27 45C31.7739 45 36.3523 43.1036 39.7279 39.7279C43.1036 36.3523 45 31.7739 45 27C45 22.2261 43.1036 17.6477 39.7279 14.2721C36.3523 10.8964 31.7739 9 27 9ZM27 31.5C28.1935 31.5 29.3381 31.9741 30.182 32.818C31.0259 33.6619 31.5 34.8065 31.5 36C31.5 37.1935 31.0259 38.3381 30.182 39.182C29.3381 40.0259 28.1935 40.5 27 40.5C25.8065 40.5 24.6619 40.0259 23.818 39.182C22.9741 38.3381 22.5 37.1935 22.5 36C22.5 34.8065 22.9741 33.6619 23.818 32.818C24.6619 31.9741 25.8065 31.5 27 31.5ZM18 22.5C19.1935 22.5 20.3381 22.9741 21.182 23.818C22.0259 24.6619 22.5 25.8065 22.5 27C22.5 28.1935 22.0259 29.3381 21.182 30.182C20.3381 31.0259 19.1935 31.5 18 31.5C16.8065 31.5 15.6619 31.0259 14.818 30.182C13.9741 29.3381 13.5 28.1935 13.5 27C13.5 25.8065 13.9741 24.6619 14.818 23.818C15.6619 22.9741 16.8065 22.5 18 22.5ZM36 22.5C37.1935 22.5 38.3381 22.9741 39.182 23.818C40.0259 24.6619 40.5 25.8065 40.5 27C40.5 28.1935 40.0259 29.3381 39.182 30.182C38.3381 31.0259 37.1935 31.5 36 31.5C34.8065 31.5 33.6619 31.0259 32.818 30.182C31.9741 29.3381 31.5 28.1935 31.5 27C31.5 25.8065 31.9741 24.6619 32.818 23.818C33.6619 22.9741 34.8065 22.5 36 22.5ZM27 13.5C28.1935 13.5 29.3381 13.9741 30.182 14.818C31.0259 15.6619 31.5 16.8065 31.5 18C31.5 19.1935 31.0259 20.3381 30.182 21.182C29.3381 22.0259 28.1935 22.5 27 22.5C25.8065 22.5 24.6619 22.0259 23.818 21.182C22.9741 20.3381 22.5 19.1935 22.5 18C22.5 16.8065 22.9741 15.6619 23.818 14.818C24.6619 13.9741 25.8065 13.5 27 13.5Z" fill="white"/>
</g>
</g>
</svg>
