<svg width="8" height="12" viewBox="0 0 8 12" fill="none" xmlns="http://www.w3.org/2000/svg">
<path id="Vector" d="M1.92485 6L7.022 0.761787C7.06397 0.719574 7.09715 0.669457 7.11962 0.614337C7.14208 0.559216 7.1534 0.500187 7.1529 0.440665C7.15241 0.381143 7.14012 0.322311 7.11673 0.267571C7.09335 0.212832 7.05935 0.163273 7.01669 0.121763C6.97402 0.0802522 6.92356 0.0476144 6.8682 0.0257379C6.81284 0.00386145 6.75369 -0.00681931 6.69418 -0.00568625C6.63466 -0.00455319 6.57597 0.00837122 6.52148 0.032339C6.467 0.0563067 6.41781 0.0908419 6.37676 0.133946L0.974681 5.68608C0.892916 5.77012 0.847168 5.88275 0.847168 6C0.847168 6.11725 0.892916 6.22988 0.974681 6.31392L6.37676 11.8661C6.41781 11.9092 6.467 11.9437 6.52148 11.9677C6.57597 11.9916 6.63466 12.0046 6.69418 12.0057C6.75369 12.0068 6.81284 11.9961 6.8682 11.9743C6.92356 11.9524 6.97402 11.9197 7.01669 11.8782C7.05935 11.8367 7.09335 11.7872 7.11673 11.7324C7.14012 11.6777 7.15241 11.6189 7.1529 11.5593C7.1534 11.4998 7.14208 11.4408 7.11962 11.3857C7.09715 11.3305 7.06397 11.2804 7.022 11.2382L1.92485 6Z" fill="white" fill-opacity="0.5"/>
</svg>
