<svg width="229" height="51" viewBox="0 0 229 51" fill="none" xmlns="http://www.w3.org/2000/svg">
<circle cx="25.5" cy="25.5" r="25.5" fill="#BE123C"/>
<circle cx="25.5" cy="25.5" r="19.5" fill="#E11D48"/>
<g clip-path="url(#clip0_47_740)">
<path d="M25 16C30.523 16 35 20.477 35 26C35.0014 27.5014 34.664 28.9838 34.013 30.3367C33.362 31.6896 32.4141 32.8783 31.24 33.814L31.001 34H33C33.2549 34.0003 33.5 34.0979 33.6854 34.2728C33.8707 34.4478 33.9822 34.687 33.9972 34.9414C34.0121 35.1958 33.9293 35.4464 33.7657 35.6418C33.6021 35.8373 33.3701 35.9629 33.117 35.993L33 36H25C19.477 36 15 31.523 15 26C15 20.477 19.477 16 25 16ZM25 18C22.8783 18 20.8434 18.8429 19.3431 20.3431C17.8429 21.8434 17 23.8783 17 26C17 28.1217 17.8429 30.1566 19.3431 31.6569C20.8434 33.1571 22.8783 34 25 34C27.1217 34 29.1566 33.1571 30.6569 31.6569C32.1571 30.1566 33 28.1217 33 26C33 23.8783 32.1571 21.8434 30.6569 20.3431C29.1566 18.8429 27.1217 18 25 18ZM25 28C25.5304 28 26.0391 28.2107 26.4142 28.5858C26.7893 28.9609 27 29.4696 27 30C27 30.5304 26.7893 31.0391 26.4142 31.4142C26.0391 31.7893 25.5304 32 25 32C24.4696 32 23.9609 31.7893 23.5858 31.4142C23.2107 31.0391 23 30.5304 23 30C23 29.4696 23.2107 28.9609 23.5858 28.5858C23.9609 28.2107 24.4696 28 25 28ZM21 24C21.5304 24 22.0391 24.2107 22.4142 24.5858C22.7893 24.9609 23 25.4696 23 26C23 26.5304 22.7893 27.0391 22.4142 27.4142C22.0391 27.7893 21.5304 28 21 28C20.4696 28 19.9609 27.7893 19.5858 27.4142C19.2107 27.0391 19 26.5304 19 26C19 25.4696 19.2107 24.9609 19.5858 24.5858C19.9609 24.2107 20.4696 24 21 24ZM29 24C29.5304 24 30.0391 24.2107 30.4142 24.5858C30.7893 24.9609 31 25.4696 31 26C31 26.5304 30.7893 27.0391 30.4142 27.4142C30.0391 27.7893 29.5304 28 29 28C28.4696 28 27.9609 27.7893 27.5858 27.4142C27.2107 27.0391 27 26.5304 27 26C27 25.4696 27.2107 24.9609 27.5858 24.5858C27.9609 24.2107 28.4696 24 29 24ZM25 20C25.5304 20 26.0391 20.2107 26.4142 20.5858C26.7893 20.9609 27 21.4696 27 22C27 22.5304 26.7893 23.0391 26.4142 23.4142C26.0391 23.7893 25.5304 24 25 24C24.4696 24 23.9609 23.7893 23.5858 23.4142C23.2107 23.0391 23 22.5304 23 22C23 21.4696 23.2107 20.9609 23.5858 20.5858C23.9609 20.2107 24.4696 20 25 20Z" fill="white"/>
</g>
<path d="M72.392 33.788C71.176 33.788 70.088 33.58 69.128 33.164C68.184 32.748 67.44 32.14 66.896 31.34C66.352 30.54 66.064 29.572 66.032 28.436H69.464C69.48 28.932 69.608 29.38 69.848 29.78C70.088 30.18 70.424 30.5 70.856 30.74C71.288 30.964 71.8 31.076 72.392 31.076C72.888 31.076 73.32 30.996 73.688 30.836C74.072 30.66 74.368 30.42 74.576 30.116C74.8 29.812 74.912 29.452 74.912 29.036C74.912 28.54 74.784 28.132 74.528 27.812C74.288 27.476 73.96 27.204 73.544 26.996C73.128 26.772 72.648 26.572 72.104 26.396C71.576 26.204 71.016 26.012 70.424 25.82C69.128 25.372 68.136 24.796 67.448 24.092C66.76 23.372 66.416 22.42 66.416 21.236C66.416 20.228 66.656 19.364 67.136 18.644C67.616 17.924 68.288 17.372 69.152 16.988C70.016 16.604 71 16.412 72.104 16.412C73.24 16.412 74.24 16.612 75.104 17.012C75.968 17.396 76.648 17.956 77.144 18.692C77.64 19.428 77.904 20.292 77.936 21.284H74.456C74.44 20.916 74.336 20.572 74.144 20.252C73.952 19.916 73.68 19.652 73.328 19.46C72.976 19.252 72.552 19.148 72.056 19.148C71.64 19.132 71.264 19.196 70.928 19.34C70.592 19.484 70.32 19.7 70.112 19.988C69.92 20.26 69.824 20.604 69.824 21.02C69.824 21.42 69.92 21.756 70.112 22.028C70.304 22.3 70.576 22.54 70.928 22.748C71.28 22.94 71.696 23.124 72.176 23.3C72.656 23.46 73.176 23.628 73.736 23.804C74.584 24.092 75.352 24.436 76.04 24.836C76.744 25.22 77.304 25.724 77.72 26.348C78.136 26.972 78.344 27.796 78.344 28.82C78.344 29.7 78.112 30.516 77.648 31.268C77.2 32.02 76.536 32.628 75.656 33.092C74.776 33.556 73.688 33.788 72.392 33.788ZM86.7826 33.788C85.5666 33.788 84.4866 33.532 83.5426 33.02C82.6146 32.508 81.8866 31.788 81.3586 30.86C80.8306 29.932 80.5666 28.868 80.5666 27.668C80.5666 26.42 80.8226 25.324 81.3346 24.38C81.8626 23.42 82.5906 22.668 83.5186 22.124C84.4626 21.58 85.5586 21.308 86.8066 21.308C87.9906 21.308 89.0306 21.564 89.9266 22.076C90.8386 22.588 91.5426 23.292 92.0386 24.188C92.5506 25.068 92.8066 26.068 92.8066 27.188C92.8066 27.348 92.8066 27.532 92.8066 27.74C92.8066 27.932 92.7906 28.132 92.7586 28.34H82.8946V26.348H89.5186C89.4706 25.628 89.1906 25.044 88.6786 24.596C88.1826 24.148 87.5586 23.924 86.8066 23.924C86.2466 23.924 85.7346 24.052 85.2706 24.308C84.8066 24.548 84.4386 24.916 84.1666 25.412C83.8946 25.908 83.7586 26.532 83.7586 27.284V27.98C83.7586 28.62 83.8866 29.18 84.1426 29.66C84.3986 30.14 84.7506 30.508 85.1986 30.764C85.6626 31.02 86.1826 31.148 86.7586 31.148C87.3506 31.148 87.8466 31.02 88.2466 30.764C88.6466 30.492 88.9506 30.148 89.1586 29.732H92.4706C92.2306 30.484 91.8466 31.172 91.3186 31.796C90.7906 32.404 90.1426 32.892 89.3746 33.26C88.6066 33.612 87.7426 33.788 86.7826 33.788ZM99.4921 33.788C98.4841 33.788 97.6441 33.628 96.9721 33.308C96.3161 32.988 95.8281 32.556 95.5081 32.012C95.1881 31.468 95.0281 30.868 95.0281 30.212C95.0281 29.476 95.2121 28.836 95.5801 28.292C95.9641 27.732 96.5401 27.292 97.3081 26.972C98.0761 26.652 99.0441 26.492 100.212 26.492H103.212C103.212 25.916 103.124 25.444 102.948 25.076C102.788 24.692 102.532 24.412 102.18 24.236C101.844 24.044 101.412 23.948 100.884 23.948C100.26 23.948 99.7241 24.084 99.2761 24.356C98.8441 24.628 98.5721 25.044 98.4601 25.604H95.3161C95.4121 24.724 95.7081 23.964 96.2041 23.324C96.7001 22.684 97.3561 22.188 98.1721 21.836C98.9881 21.484 99.8921 21.308 100.884 21.308C102.02 21.308 103.004 21.5 103.836 21.884C104.668 22.252 105.308 22.804 105.756 23.54C106.22 24.26 106.452 25.14 106.452 26.18V33.5H103.716L103.356 31.652C103.196 31.972 102.988 32.26 102.732 32.516C102.492 32.772 102.212 32.996 101.892 33.188C101.572 33.38 101.212 33.524 100.812 33.62C100.412 33.732 99.9721 33.788 99.4921 33.788ZM100.26 31.292C100.692 31.292 101.068 31.22 101.388 31.076C101.724 30.916 102.004 30.708 102.228 30.452C102.468 30.196 102.652 29.9 102.78 29.564C102.924 29.228 103.02 28.868 103.068 28.484H100.572C100.076 28.484 99.6681 28.548 99.3481 28.676C99.0441 28.788 98.8201 28.956 98.6761 29.18C98.5321 29.388 98.4601 29.636 98.4601 29.924C98.4601 30.212 98.5321 30.46 98.6761 30.668C98.8201 30.876 99.0281 31.036 99.3001 31.148C99.5721 31.244 99.8921 31.292 100.26 31.292ZM109.357 33.5V21.596H112.237L112.549 23.828C112.837 23.316 113.189 22.876 113.605 22.508C114.037 22.124 114.525 21.828 115.069 21.62C115.629 21.412 116.237 21.308 116.893 21.308V24.74H116.005C115.509 24.74 115.045 24.796 114.613 24.908C114.197 25.02 113.837 25.204 113.533 25.46C113.229 25.716 112.997 26.068 112.837 26.516C112.677 26.948 112.597 27.5 112.597 28.172V33.5H109.357ZM124.682 33.788C123.466 33.788 122.386 33.524 121.442 32.996C120.498 32.452 119.754 31.716 119.21 30.788C118.682 29.844 118.418 28.764 118.418 27.548C118.418 26.332 118.682 25.26 119.21 24.332C119.754 23.388 120.498 22.652 121.442 22.124C122.386 21.58 123.466 21.308 124.682 21.308C126.218 21.308 127.514 21.708 128.57 22.508C129.626 23.308 130.29 24.412 130.562 25.82H127.154C127.01 25.276 126.714 24.852 126.266 24.548C125.818 24.228 125.282 24.068 124.658 24.068C124.114 24.068 123.618 24.212 123.17 24.5C122.722 24.772 122.37 25.172 122.114 25.7C121.858 26.212 121.73 26.828 121.73 27.548C121.73 28.092 121.802 28.58 121.946 29.012C122.106 29.428 122.314 29.788 122.57 30.092C122.842 30.396 123.154 30.628 123.506 30.788C123.858 30.948 124.242 31.028 124.658 31.028C125.074 31.028 125.45 30.964 125.786 30.836C126.122 30.692 126.41 30.492 126.65 30.236C126.89 29.964 127.058 29.644 127.154 29.276H130.562C130.29 30.652 129.626 31.748 128.57 32.564C127.514 33.38 126.218 33.788 124.682 33.788ZM133.333 33.5V16.22H136.573V23.372C136.957 22.748 137.485 22.252 138.157 21.884C138.829 21.5 139.613 21.308 140.509 21.308C141.501 21.308 142.341 21.524 143.029 21.956C143.717 22.372 144.237 22.988 144.589 23.804C144.957 24.62 145.141 25.628 145.141 26.828V33.5H141.925V27.116C141.925 26.124 141.725 25.364 141.325 24.836C140.941 24.308 140.309 24.044 139.429 24.044C138.885 24.044 138.397 24.18 137.965 24.452C137.533 24.708 137.189 25.084 136.933 25.58C136.693 26.06 136.573 26.652 136.573 27.356V33.5H133.333ZM148.124 33.5V16.7H151.988L157.22 27.164L162.38 16.7H166.244V33.5H163.004V22.196L158.468 31.1H155.9L151.364 22.172V33.5H148.124ZM175.116 33.788C173.98 33.788 172.948 33.524 172.02 32.996C171.108 32.468 170.38 31.732 169.836 30.788C169.292 29.844 169.02 28.764 169.02 27.548C169.02 26.316 169.292 25.236 169.836 24.308C170.38 23.364 171.116 22.628 172.044 22.1C172.972 21.572 174.004 21.308 175.14 21.308C176.292 21.308 177.332 21.572 178.26 22.1C179.188 22.628 179.916 23.364 180.444 24.308C180.988 25.236 181.26 26.316 181.26 27.548C181.26 28.78 180.988 29.868 180.444 30.812C179.9 31.74 179.164 32.468 178.236 32.996C177.324 33.524 176.284 33.788 175.116 33.788ZM175.14 30.98C175.652 30.98 176.116 30.852 176.532 30.596C176.964 30.34 177.308 29.956 177.564 29.444C177.836 28.932 177.972 28.3 177.972 27.548C177.972 26.78 177.844 26.148 177.588 25.652C177.332 25.14 176.988 24.756 176.556 24.5C176.14 24.244 175.676 24.116 175.164 24.116C174.652 24.116 174.18 24.244 173.748 24.5C173.316 24.756 172.972 25.14 172.716 25.652C172.46 26.148 172.332 26.78 172.332 27.548C172.332 28.3 172.46 28.932 172.716 29.444C172.972 29.956 173.308 30.34 173.724 30.596C174.156 30.852 174.628 30.98 175.14 30.98ZM186.611 33.5L182.267 21.596H185.675L188.603 30.452L191.531 21.596H194.915L190.547 33.5H186.611ZM196.945 33.5V21.596H200.185V33.5H196.945ZM198.553 19.868C197.977 19.868 197.497 19.7 197.113 19.364C196.745 19.012 196.561 18.572 196.561 18.044C196.561 17.516 196.745 17.084 197.113 16.748C197.497 16.396 197.977 16.22 198.553 16.22C199.145 16.22 199.625 16.396 199.993 16.748C200.377 17.084 200.569 17.516 200.569 18.044C200.569 18.572 200.377 19.012 199.993 19.364C199.625 19.7 199.145 19.868 198.553 19.868ZM209.22 33.788C208.004 33.788 206.924 33.532 205.98 33.02C205.052 32.508 204.324 31.788 203.796 30.86C203.268 29.932 203.004 28.868 203.004 27.668C203.004 26.42 203.26 25.324 203.772 24.38C204.3 23.42 205.028 22.668 205.956 22.124C206.9 21.58 207.996 21.308 209.244 21.308C210.428 21.308 211.468 21.564 212.364 22.076C213.276 22.588 213.98 23.292 214.476 24.188C214.988 25.068 215.244 26.068 215.244 27.188C215.244 27.348 215.244 27.532 215.244 27.74C215.244 27.932 215.228 28.132 215.196 28.34H205.332V26.348H211.956C211.908 25.628 211.628 25.044 211.116 24.596C210.62 24.148 209.996 23.924 209.244 23.924C208.684 23.924 208.172 24.052 207.708 24.308C207.244 24.548 206.876 24.916 206.604 25.412C206.332 25.908 206.196 26.532 206.196 27.284V27.98C206.196 28.62 206.324 29.18 206.58 29.66C206.836 30.14 207.188 30.508 207.636 30.764C208.1 31.02 208.62 31.148 209.196 31.148C209.788 31.148 210.284 31.02 210.684 30.764C211.084 30.492 211.388 30.148 211.596 29.732H214.908C214.668 30.484 214.284 31.172 213.756 31.796C213.228 32.404 212.58 32.892 211.812 33.26C211.044 33.612 210.18 33.788 209.22 33.788ZM222.77 33.788C221.714 33.788 220.778 33.612 219.962 33.26C219.162 32.908 218.514 32.428 218.018 31.82C217.538 31.196 217.258 30.492 217.178 29.708H220.418C220.482 29.996 220.618 30.268 220.826 30.524C221.034 30.764 221.298 30.956 221.618 31.1C221.938 31.244 222.306 31.316 222.722 31.316C223.17 31.316 223.522 31.26 223.778 31.148C224.05 31.02 224.25 30.86 224.378 30.668C224.522 30.46 224.594 30.252 224.594 30.044C224.594 29.724 224.49 29.484 224.282 29.324C224.09 29.148 223.81 29.004 223.442 28.892C223.074 28.78 222.634 28.66 222.122 28.532C221.594 28.404 221.058 28.26 220.514 28.1C219.986 27.94 219.498 27.74 219.05 27.5C218.602 27.244 218.242 26.924 217.97 26.54C217.698 26.156 217.562 25.668 217.562 25.076C217.562 24.372 217.754 23.74 218.138 23.18C218.538 22.604 219.098 22.148 219.818 21.812C220.554 21.476 221.426 21.308 222.434 21.308C223.874 21.308 225.018 21.636 225.866 22.292C226.73 22.948 227.234 23.852 227.378 25.004H224.33C224.25 24.62 224.042 24.324 223.706 24.116C223.386 23.908 222.962 23.804 222.434 23.804C221.874 23.804 221.442 23.908 221.138 24.116C220.85 24.324 220.706 24.58 220.706 24.884C220.706 25.108 220.81 25.3 221.018 25.46C221.226 25.62 221.514 25.764 221.882 25.892C222.266 26.004 222.706 26.116 223.202 26.228C224.066 26.436 224.842 26.66 225.53 26.9C226.218 27.124 226.77 27.46 227.186 27.908C227.618 28.356 227.834 29.012 227.834 29.876C227.85 30.612 227.65 31.276 227.234 31.868C226.818 32.46 226.234 32.932 225.482 33.284C224.73 33.62 223.826 33.788 222.77 33.788Z" fill="white"/>
<defs>
<clipPath id="clip0_47_740">
<rect width="20" height="21.814" fill="white" transform="translate(15 16)"/>
</clipPath>
</defs>
</svg>
